<svg id="Capa_1" enable-background="new 0 0 512 512" height="512" viewBox="0 0 512 512" width="512" xmlns="http://www.w3.org/2000/svg"><g><g><path d="m507.658 372.368-.01.01c-1.401 18.883-3.163 37.756-5.264 56.64-1.999 17.987-16.565 31.977-34.604 33.419-141.177 11.363-282.375 11.363-423.553 0-18.131-1.453-32.626-15.576-34.635-33.646-12.888-115.762-12.785-231.525.288-347.287 1.926-17.039 15.154-30.628 32.121-33.121 64.912-9.56 123.056-9.787 178.882-.67 16.679 2.72 29.546 16.226 31.441 33.007.247 2.174.484 4.347.721 6.521 2.102 19.265 18.409 33.821 37.787 33.728 60.977-.288 121.954 1.545 182.931 5.491 19.059 1.236 34.192 16.473 35.356 35.542 4.277 70.126 3.793 140.241-1.461 210.366z" fill="#f1d333"/><path d="m507.648 372.378c-1.401 18.883-3.163 37.756-5.264 56.64-1.999 17.987-16.565 31.977-34.604 33.419-141.177 11.363-282.375 11.363-423.553 0-18.131-1.453-32.626-15.576-34.635-33.646-12.888-115.762-12.785-231.525.288-347.287 1.926-17.039 15.154-30.628 32.121-33.121 0 77.975-17.894 337.758 64.675 355.879 82.56 18.122 336.471 32.585 400.972-31.884z" fill="#eab14d"/></g><g><path d="m270.85 175.529 21.659 43.886c2.412 4.887 7.074 8.275 12.468 9.058l48.431 7.037c13.582 1.974 19.005 18.664 9.177 28.244l-35.045 34.161c-3.903 3.804-5.684 9.285-4.762 14.657l8.273 48.236c2.32 13.527-11.878 23.843-24.026 17.456l-43.318-22.774c-4.824-2.536-10.587-2.536-15.411 0l-43.318 22.774c-12.148 6.387-26.346-3.929-24.026-17.456l8.273-48.236c.921-5.372-.86-10.853-4.762-14.657l-35.045-34.161c-9.828-9.58-4.405-26.271 9.177-28.244l48.431-7.037c5.393-.784 10.056-4.171 12.468-9.058l21.659-43.886c6.074-12.307 23.623-12.307 29.697 0z" fill="#ddeafb"/></g></g></svg>