<svg id="Capa_1" enable-background="new 0 0 512.004 512.004" height="512" viewBox="0 0 512.004 512.004" width="512" xmlns="http://www.w3.org/2000/svg"><path d="m136.002 68.391-75-39.705v182.318l30 30h45 45l30-30v-102.909z" fill="#e33a53"/><path d="m211.002 211.004v-102.909l-75-39.704v172.613h45z" fill="#ac2739"/><path d="m165.577 35.087c-9.164-7.967-19.299-15.104-29.575-20.969-25.902-14.786-52.747-20.568-67.588-4.416-3.721 4.058-8.027 11.265-7.383 22.559 1.128 20.244 18.574 47.358 45.498 70.752 8.141 7.068 18.499 14.48 29.473 20.797 24.525 14.119 52.463 22.154 67.983 4.296 20.289-23.351-5.698-64.586-38.408-93.019z" fill="#fc657d"/><path d="m203.986 128.105c20.288-23.35-5.698-64.585-38.408-93.018-9.164-7.967-19.299-15.104-29.575-20.969v109.691c24.524 14.12 52.463 22.154 67.983 4.296z" fill="#e33a53"/><path d="m436.002 211.004h-60-60c-24.901 0-45 20.099-45 45v166l30 30h75 75l30-30v-166c0-24.9-20.099-45-45-45z" fill="#766e6e"/><path d="m481.002 422.004v-166c0-24.901-20.099-45-45-45h-60v241h75z" fill="#463f3f"/><path d="m376.002 422.004h-105v75c0 8.401 6.599 15 15 15h90 90c8.401 0 15-6.599 15-15v-75z" fill="#fff587"/><path d="m481.002 497.004v-75h-105v90h90c8.401 0 15-6.599 15-15z" fill="#ffda2e"/><path d="m136.002 211.004h-75v90h75 75v-90z" fill="#e0f4fe"/><path d="m136.002 211.004h75v90h-75z" fill="#bcdbfd"/><path d="m226.002 271.004h-90-90c-8.291 0-15 6.709-15 15v211c0 8.291 6.709 15 15 15h90 90c8.291 0 15-6.709 15-15v-211c0-8.291-6.709-15-15-15z" fill="#766e6e"/><path d="m241.002 497.004v-211c0-8.291-6.709-15-15-15h-90v241h90c8.291 0 15-6.709 15-15z" fill="#463f3f"/></svg>