<?xml version="1.0" encoding="iso-8859-1"?>
<!-- Generator: Adobe Illustrator 19.0.0, SVG Export Plug-In . SVG Version: 6.00 Build 0)  -->
<svg version="1.1" id="Capa_1" xmlns="http://www.w3.org/2000/svg" xmlns:xlink="http://www.w3.org/1999/xlink" x="0px" y="0px"
	 viewBox="0 0 436.907 436.907" style="enable-background:new 0 0 436.907 436.907;" xml:space="preserve">
<g>
	<rect x="6.827" y="276.48" style="fill:#00E7FF;" width="423.253" height="81.92"/>
	<path style="fill:#00E7FF;" d="M430.08,365.227H6.827C3.053,365.227,0,362.173,0,358.4v-81.92c0-3.773,3.053-6.827,6.827-6.827
		H430.08c3.773,0,6.827,3.053,6.827,6.827v81.92C436.907,362.173,433.853,365.227,430.08,365.227z M13.653,351.573h409.6v-68.267
		h-409.6V351.573z"/>
</g>
<polyline style="fill:#FFE600;" points="430.08,206.793 430.08,317.44 6.827,317.44 6.827,160.427 430.08,160.427 "/>
<g>
	<path style="fill:#602F75;" d="M430.08,324.267H6.827c-3.773,0-6.827-3.053-6.827-6.827V160.427c0-3.773,3.053-6.827,6.827-6.827
		H430.08c3.773,0,6.827,3.053,6.827,6.827s-3.053,6.827-6.827,6.827H13.653v143.36h409.6v-103.82c0-3.773,3.053-6.827,6.827-6.827
		s6.827,3.053,6.827,6.827V317.44C436.907,321.213,433.853,324.267,430.08,324.267z"/>
	<path style="fill:#602F75;" d="M76.467,167.253c-2.64,0-5.154-1.539-6.274-4.113c-2.553-5.893-24.52-58.233-9.646-80.887
		c3.166-4.826,9.44-10.573,21.373-10.573c9.513,0,17.5,3.727,23.107,10.772c18.014,22.673,6.847,73.767,5.513,79.514
		c-0.853,3.666-4.473,5.967-8.194,5.106c-3.673-0.847-5.96-4.514-5.113-8.187c3.207-13.853,8.921-53.074-2.9-67.941
		c-3.046-3.831-6.992-5.612-12.413-5.612c-6.333,0-8.719,2.521-9.96,4.413c-8.201,12.486,2.246,48.319,10.767,67.966
		c1.493,3.459-0.094,7.48-3.553,8.98C78.293,167.074,77.367,167.253,76.467,167.253z"/>
	<path style="fill:#602F75;" d="M342.707,167.253c-2.64,0-5.154-1.539-6.274-4.113c-2.553-5.893-24.52-58.233-9.646-80.887
		c3.166-4.826,9.44-10.573,21.373-10.573c9.513,0,17.5,3.727,23.107,10.772c18.014,22.673,6.847,73.767,5.513,79.514
		c-0.853,3.666-4.494,5.967-8.194,5.106c-3.673-0.847-5.96-4.514-5.113-8.187c3.207-13.853,8.921-53.074-2.9-67.941
		c-3.046-3.831-6.992-5.612-12.413-5.612c-6.333,0-8.719,2.521-9.96,4.413c-8.201,12.486,2.246,48.319,10.767,67.966
		c1.493,3.459-0.094,7.48-3.553,8.98C344.533,167.074,343.607,167.253,342.707,167.253z"/>
</g>
<g>
	<path style="fill:#EA3457;" d="M59.907,266.24c3.994,2.459,9.827,4.507,15.973,4.507c9.114,0,14.44-4.813,14.44-11.779
		c0-6.446-3.686-10.134-13.007-13.72c-11.261-3.994-18.227-9.827-18.227-19.553c0-10.754,8.907-18.739,22.32-18.739
		c7.067,0,12.187,1.64,15.259,3.379l-2.459,7.267c-2.253-1.227-6.861-3.273-13.107-3.273c-9.421,0-13,5.627-13,10.341
		c0,6.453,4.193,9.627,13.72,13.314c11.674,4.507,17.613,10.134,17.613,20.273c0,10.646-7.887,19.867-24.166,19.867
		c-6.653,0-13.926-1.947-17.613-4.407L59.907,266.24z"/>
	<path style="fill:#EA3457;" d="M135.067,255.387l-7.166,21.707h-9.213l23.446-69.014h10.754l23.554,69.014h-9.527l-7.373-21.707
		H135.067z M157.699,248.421l-6.76-19.86c-1.533-4.507-2.56-8.607-3.581-12.6h-0.207c-1.027,4.099-2.154,8.3-3.48,12.493
		l-6.76,19.966h20.787V248.421z"/>
	<path style="fill:#EA3457;" d="M198.861,208.08h8.914v61.541h29.486v7.474h-38.4L198.861,208.08L198.861,208.08z"/>
	<path style="fill:#EA3457;" d="M295.219,244.733h-26.827v24.887h29.901v7.473H259.48v-69.014h37.274v7.473h-28.36v21.813h26.827
		v7.368H295.219z"/>
	<path style="fill:#EA3457;" d="M320.92,266.24c3.994,2.459,9.827,4.507,15.973,4.507c9.114,0,14.44-4.813,14.44-11.779
		c0-6.446-3.686-10.134-13.007-13.72c-11.261-3.994-18.227-9.827-18.227-19.553c0-10.754,8.907-18.739,22.32-18.739
		c7.067,0,12.187,1.64,15.259,3.379l-2.459,7.267c-2.253-1.227-6.861-3.273-13.107-3.273c-9.421,0-13,5.627-13,10.341
		c0,6.453,4.193,9.627,13.72,13.314c11.674,4.507,17.613,10.134,17.613,20.273c0,10.646-7.887,19.867-24.166,19.867
		c-6.653,0-13.926-1.947-17.613-4.407L320.92,266.24z"/>
</g>
<g>
</g>
<g>
</g>
<g>
</g>
<g>
</g>
<g>
</g>
<g>
</g>
<g>
</g>
<g>
</g>
<g>
</g>
<g>
</g>
<g>
</g>
<g>
</g>
<g>
</g>
<g>
</g>
<g>
</g>
</svg>
